<?xml version="1.0" standalone="no"?>
<!DOCTYPE svg PUBLIC "-//W3C//DTD SVG 20010904//EN"
 "http://www.w3.org/TR/2001/REC-SVG-20010904/DTD/svg10.dtd">
<svg version="1.0" xmlns="http://www.w3.org/2000/svg"
 width="750.000000pt" height="588.000000pt" viewBox="0 0 750.000000 588.000000"
 preserveAspectRatio="xMidYMid meet">

<g transform="translate(0.000000,588.000000) scale(0.100000,-0.100000)"
fill="#000000" stroke="none">
<path d="M3587 4496 c-56 -23 -167 -101 -167 -116 0 -4 24 -11 53 -14 29 -4
97 -22 152 -40 l100 -34 100 34 c55 18 124 36 153 40 28 3 52 10 52 14 0 14
-104 88 -155 111 -36 16 -75 23 -140 26 -78 3 -98 0 -148 -21z"/>
<path d="M3220 4343 c-46 -9 -145 -60 -187 -97 -48 -42 -95 -132 -112 -214
-12 -57 -15 -112 -5 -112 3 0 26 16 52 36 26 20 88 56 137 80 81 39 92 48 104
82 17 47 83 161 117 201 l26 31 -54 -1 c-29 -1 -64 -4 -78 -6z"/>
<path d="M4135 4304 c21 -27 58 -90 82 -140 l45 -92 63 -27 c36 -15 96 -49
136 -76 39 -27 74 -47 77 -45 11 12 -20 162 -45 214 -56 119 -179 199 -321
209 l-74 6 37 -49z"/>
<path d="M3369 4288 c-45 -61 -82 -123 -110 -185 -28 -61 -30 -63 -117 -106
-49 -24 -115 -63 -146 -86 -50 -37 -57 -46 -52 -69 3 -15 8 -47 11 -72 3 -25
20 -87 37 -137 l31 -93 -31 -92 c-65 -188 -65 -345 -2 -475 32 -65 104 -138
163 -166 131 -62 301 -60 486 5 l85 30 90 -31 c192 -65 352 -67 483 -4 60 28
131 101 162 166 63 129 63 286 0 475 l-31 94 30 92 c17 50 34 111 37 136 3 25
8 57 11 71 4 22 -3 32 -52 69 -31 23 -97 63 -146 87 -86 43 -90 46 -114 100
-13 31 -49 94 -80 140 -55 82 -56 83 -97 83 -48 0 -212 -42 -258 -66 -29 -15
-34 -14 -78 4 -64 28 -201 62 -248 62 -33 0 -43 -6 -64 -32z m536 -538 l0 -45
-60 -5 -60 -5 -3 -202 -2 -203 -55 0 -55 0 -2 203 -3 202 -62 3 -63 3 0 43 c0
23 3 46 7 50 4 3 86 5 182 4 l176 -3 0 -45z"/>
<path d="M2863 3827 c-29 -32 -78 -108 -91 -142 -37 -91 -32 -220 12 -309 25
-52 91 -136 105 -136 5 0 11 25 15 55 3 31 20 99 37 152 l31 97 -25 75 c-30
90 -47 160 -47 195 0 35 -14 39 -37 13z"/>
<path d="M4556 3838 c-3 -7 -7 -35 -11 -63 -4 -27 -20 -91 -37 -141 l-30 -92
32 -98 c17 -55 34 -123 37 -151 3 -29 9 -53 14 -53 14 0 80 84 104 135 65 133
51 272 -41 402 -49 69 -62 81 -68 61z"/>
<path d="M3631 2764 c-52 -18 -124 -36 -160 -40 l-65 -7 49 -45 c28 -25 79
-59 115 -76 58 -28 75 -31 155 -31 80 0 97 4 155 31 36 17 87 51 115 76 l49
45 -66 7 c-36 4 -108 22 -160 40 l-94 32 -93 -32z"/>
<path d="M2620 2098 c-60 -31 -82 -64 -83 -126 -1 -85 36 -121 176 -168 81
-27 103 -48 92 -85 -10 -29 -60 -48 -103 -38 -19 4 -52 24 -73 45 -36 35 -39
36 -69 24 -17 -7 -33 -16 -36 -21 -9 -14 25 -67 58 -92 107 -79 256 -57 307
46 48 97 3 165 -139 211 -92 30 -124 56 -114 90 9 30 33 46 72 46 41 0 70 -14
99 -48 22 -26 22 -26 58 -9 19 9 35 23 35 32 0 8 -17 32 -38 53 -63 63 -163
80 -242 40z"/>
<path d="M5150 2105 c-57 -18 -124 -75 -153 -129 -17 -32 -22 -58 -22 -122 0
-72 3 -86 30 -129 60 -97 148 -141 261 -132 147 11 245 117 245 262 0 105 -43
181 -131 229 -64 35 -160 44 -230 21z m188 -102 c49 -36 72 -81 72 -139 0
-117 -65 -186 -172 -186 -129 1 -207 141 -145 262 31 64 84 92 160 87 37 -2
67 -10 85 -24z"/>
<path d="M1450 2065 l0 -45 65 0 65 0 0 -210 0 -210 50 0 50 0 0 210 0 209 63
3 62 3 3 43 3 42 -180 0 -181 0 0 -45z"/>
<path d="M2039 2013 c-17 -54 -56 -168 -86 -253 -29 -85 -53 -156 -53 -157 0
-2 24 -3 54 -3 l54 0 17 50 17 51 101 -3 101 -3 15 -47 15 -48 53 0 c29 0 53
4 53 8 0 4 -38 118 -84 252 l-84 245 -70 3 -70 3 -33 -98z m139 -122 c17 -49
28 -92 24 -95 -11 -12 -122 -6 -122 6 0 21 54 178 61 178 4 0 21 -40 37 -89z"/>
<path d="M3090 1855 l0 -255 50 0 50 0 0 68 c0 63 3 72 33 107 l34 39 35 -55
c19 -29 47 -78 64 -106 l29 -53 58 0 c31 0 57 2 57 5 0 2 -24 44 -53 92 -29
48 -68 114 -86 146 l-33 57 87 105 86 105 -64 0 -63 0 -55 -67 c-88 -108 -111
-133 -120 -133 -5 0 -9 45 -9 100 l0 100 -50 0 -50 0 0 -255z"/>
<path d="M3670 1855 l0 -255 50 0 49 0 3 93 3 92 80 6 c130 9 187 55 189 153
1 68 -26 114 -84 144 -39 19 -60 22 -167 22 l-123 0 0 -255z m248 149 c16 -11
22 -25 22 -53 0 -55 -25 -74 -102 -75 l-63 -1 -3 73 -3 72 63 0 c41 0 71 -5
86 -16z"/>
<path d="M4220 1855 l0 -255 50 0 50 0 0 255 0 255 -50 0 -50 0 0 -255z"/>
<path d="M4520 1855 l0 -255 160 0 160 0 0 40 c0 45 4 44 -112 40 -117 -3
-108 -21 -108 221 l0 209 -50 0 -50 0 0 -255z"/>
<path d="M5642 2068 l3 -43 63 -3 62 -3 0 -209 0 -210 50 0 50 0 0 210 0 210
65 0 65 0 0 45 0 45 -181 0 -180 0 3 -42z"/>
</g>
</svg>
