<?xml version="1.0" standalone="no"?>
<!DOCTYPE svg PUBLIC "-//W3C//DTD SVG 20010904//EN"
 "http://www.w3.org/TR/2001/REC-SVG-20010904/DTD/svg10.dtd">
<svg version="1.0" xmlns="http://www.w3.org/2000/svg"
 width="337.000000pt" height="303.000000pt" viewBox="0 0 337.000000 303.000000"
 preserveAspectRatio="xMidYMid meet">

<g transform="translate(0.000000,303.000000) scale(0.100000,-0.100000)"
fill="#000000" stroke="none">
<path d="M1545 2784 c-60 -15 -147 -51 -195 -81 -54 -34 -130 -101 -130 -114
0 -3 27 -9 61 -13 77 -8 162 -29 267 -68 l83 -30 125 41 c68 23 161 47 206 53
46 7 85 13 87 15 10 7 -58 68 -119 108 -97 63 -169 87 -275 91 -49 1 -99 1
-110 -2z"/>
<path d="M1044 2560 c-209 -22 -362 -119 -442 -280 -38 -75 -64 -189 -60 -259
l3 -52 45 35 c65 50 200 129 269 156 56 23 60 27 81 79 33 82 88 177 142 249
45 60 57 84 41 81 -5 -1 -40 -5 -79 -9z"/>
<path d="M2140 2556 c0 -2 14 -21 31 -42 42 -53 131 -207 159 -275 21 -52 25
-56 81 -79 69 -27 204 -106 269 -156 l45 -35 3 49 c4 69 -22 186 -60 262 -39
79 -133 177 -207 214 -70 36 -190 66 -263 66 -32 0 -58 -2 -58 -4z"/>
<path d="M1141 2453 c-53 -70 -110 -171 -147 -258 -21 -48 -25 -52 -130 -105
-104 -53 -194 -110 -258 -163 l-30 -24 18 -108 c10 -59 35 -158 56 -219 l39
-110 -33 -91 c-56 -149 -71 -233 -70 -385 0 -117 4 -145 26 -211 116 -348 493
-461 952 -285 l69 26 111 -39 c148 -51 229 -66 366 -66 192 1 310 44 421 156
76 76 110 139 140 259 38 151 12 380 -65 569 l-26 64 39 112 c22 61 47 160 58
219 l18 108 -30 25 c-67 55 -156 111 -259 163 l-108 55 -28 66 c-32 77 -95
182 -152 257 -35 45 -45 52 -75 52 -62 0 -233 -40 -322 -75 l-86 -34 -86 34
c-89 35 -260 75 -322 75 -32 0 -40 -7 -86 -67z m739 -718 l0 -64 -82 -3 -83
-3 -3 -272 -2 -273 -75 0 -75 0 0 275 0 275 -85 0 -85 0 0 65 0 65 245 0 245
0 0 -65z"/>
<path d="M477 1854 c-127 -130 -189 -316 -158 -476 7 -35 28 -94 46 -133 33
-67 127 -195 144 -195 5 0 12 30 16 68 8 74 42 201 79 291 l23 58 -24 59 c-33
82 -64 195 -77 288 l-12 78 -37 -38z"/>
<path d="M2747 1830 c-9 -78 -39 -195 -75 -289 l-29 -75 23 -58 c37 -89 71
-216 79 -290 4 -38 11 -68 16 -68 14 0 106 120 138 180 103 193 66 437 -92
610 -51 56 -54 56 -60 -10z"/>
<path d="M1560 433 c-85 -33 -243 -73 -289 -73 -69 0 -69 -13 5 -75 228 -190
490 -190 718 0 73 62 74 74 6 75 -48 0 -180 33 -280 69 -46 17 -86 31 -89 30
-3 0 -35 -12 -71 -26z"/>
</g>
</svg>
